<?xml version="1.0" encoding="utf-8"?>
<!-- Generator: Adobe Illustrator 17.0.2, SVG Export Plug-In . SVG Version: 6.00 Build 0)  -->
<!DOCTYPE svg PUBLIC "-//W3C//DTD SVG 1.1//EN" "http://www.w3.org/Graphics/SVG/1.1/DTD/svg11.dtd">
<svg version="1.1" id="Layer_1" xmlns="http://www.w3.org/2000/svg" xmlns:xlink="http://www.w3.org/1999/xlink" x="0px" y="0px"
	 width="63.342px" height="62.348px" viewBox="0 0 63.342 62.348" enable-background="new 0 0 63.342 62.348" xml:space="preserve">
<g>
	<path fill="#FFFFFF" d="M62.985,59.133c0,1.578-1.279,2.857-2.857,2.857H43.924l0.062,0.357H34.28l-0.043-0.357H3.214
		c-1.578,0-2.857-1.279-2.857-2.857V3.213c0-1.578,1.279-2.857,2.857-2.857h56.913c1.578,0,2.857,1.279,2.857,2.857v55.92H62.985z"
		/>
	<g>
		<path fill="#34582A" d="M62.985,59.133V3.213c0-1.578-1.279-2.857-2.857-2.857h-5.096H8.312H3.214
			C1.64,0.356,0.367,1.63,0.359,3.2v50.838l-0.001,5.101c0.002,1.574,1.281,2.852,2.857,2.852h31.606V37.246h-8.158v-8.525h8.158
			v-9.26c0-5.547,5.031-9.275,9.09-9.275h9.133v7.758h-4.213c-2.076,0-4.844,1.684-4.844,3.758v7.02h8.229v8.525h-8.229V61.99
			h11.045h5.096C61.706,61.99,62.985,60.711,62.985,59.133z"/>
		<path fill="#34582A" d="M60.127,62.348H43.629V36.889h8.229v-7.81h-8.229v-7.377c0-2.217,2.859-4.115,5.201-4.115h3.855v-7.043
			H43.91c-3.649,0-8.733,3.393-8.733,8.918v9.617h-8.159v7.81h8.159v25.459H3.214c-1.769,0-3.211-1.439-3.214-3.209l0.002-55.94
			C0.011,1.434,1.453,0,3.214,0h56.913c1.771,0,3.215,1.441,3.215,3.213v55.92C63.342,60.904,61.899,62.348,60.127,62.348z
			 M44.344,61.633h15.783c1.379,0,2.5-1.121,2.5-2.5V3.213c0-1.377-1.121-2.5-2.5-2.5H3.214c-1.371,0-2.492,1.117-2.499,2.488
			L0.714,59.139c0.002,1.375,1.124,2.494,2.5,2.494h31.249V37.604h-8.158v-9.24h8.158v-8.902c0-5.512,4.988-9.633,9.447-9.633h9.49
			V18.3h-4.57c-1.978,0-4.486,1.602-4.486,3.402v6.662h8.227v9.24h-8.227V61.633z"/>
	</g>
</g>
</svg>
