<?xml version="1.0" encoding="utf-8"?>
<!-- Generator: Adobe Illustrator 17.0.2, SVG Export Plug-In . SVG Version: 6.00 Build 0)  -->
<!DOCTYPE svg PUBLIC "-//W3C//DTD SVG 1.1//EN" "http://www.w3.org/Graphics/SVG/1.1/DTD/svg11.dtd">
<svg version="1.1" id="Layer_1" xmlns="http://www.w3.org/2000/svg" xmlns:xlink="http://www.w3.org/1999/xlink" x="0px" y="0px"
	 width="1040.311px" height="394.025px" viewBox="0 0.001 1040.311 394.025" enable-background="new 0 0.001 1040.311 394.025"
	 xml:space="preserve">
<path fill="#3059A8" d="M155.467,258.523c0,0,26.021,114.878,6.912,126.195l21.507-3.418c0,0,103.531-13.95,61.711-65.835
	c0,0-0.573-20.781-86.779-64.248C158.818,251.217,159.852,254.605,155.467,258.523z"/>
<path fill="#365BA9" d="M109.909,95.332c0,0-31.119,12.374-76.803,46.916l9.978,51.127l62.909-14.341
	C105.993,179.033,99.54,135.034,109.909,95.332z"/>
<path fill="#996632" d="M106.225,180.338L55.1,194.433l-6.199,33.533c0,0,11.766,24.668,7.559,52.63c0,0,3.899,5.533,22.678-3.158
	l1.814,19.849l8.618,3.609l0.907,9.925l8.164,2.256c0,0,0.036,18.125,6.803,23.909c0,0,44.975-7.814,41.274-81.201
	c0,0,0.985,2.447,9.071,4.06c0,0,3.388,0.24,3.296-7.192C158.995,245.221,124.68,237.154,106.225,180.338z"/>
<path fill="#FFE7B3" d="M215.59,55.91c0,0-42.332,29.607-79.063,100.289c0,0,21.022,79.811,91.554,63.097
	c0,0,12.429-5.22-0.237-26.106l3.628-8.421l-5.065-9.323l5.67-6.316l-5.67-15.639c0,0-4.047-3.077,1.973-3.719
	c0,0,15.228,0.406,20.932-7.409c0,0-10.938-17.61-10.885-46.916C238.427,95.448,220.888,59.508,215.59,55.91z"/>
<path fill="#070807" stroke="#000000" stroke-width="1.1245" stroke-miterlimit="10" d="M131.108,28.109l10.659-2.707
	c0,0-30.798,68.39-29.437,117.785c0,0-4.082,73.754,54.425,106.909c0,0,61.228,35.185,73.473,50.748
	c0,0,31.294,23.682,19.729,49.395c0,0-18.368,25.712-76.194,30.449c0,0,88.026-15.39,66.67-52.778c0,0-8.019-33.155-73.741-64.281
	c0,0-54.157-27.066-69.124-77.137C107.567,186.492,89.339,122.789,131.108,28.109z"/>
<path fill="#070807" stroke="#000000" stroke-width="1.1245" stroke-miterlimit="10" d="M323.697,71.389
	c0,0-70.302-91.577-163.736,33.383c0,0-29.935,44.661-30.842,50.976c0,0,8.164,46.916,45.356,64.51c0,0,52.16,22.105,65.313-5.865
	c0,0,0.907-13.533-6.35-22.105l4.082-7.669l-5.443-8.571l4.536-6.316l-6.803-16.24c0,0,20.864-1.804,22.225-10.827
	c0,0-9.071-17.142-11.793-47.367c0,0-14.06-30.676-22.678-37.894c0,0,14.212,19.699,20.864,38.044c0,0,0.907,28.571,10.885,46.916
	c0,0-2.57,6.616-22.905,7.519c0,0-2.041,0.301,0,3.609l5.67,15.639l-5.67,6.316l5.065,9.323l-3.628,8.421
	c0,0,19.352,25.864-8.769,28.27c0,0-56.846,11.428-82.548-65.262c0,0,21.771-50.224,65.615-89.923c0,0,35.983-35.187,78.013-22.556
	C280.155,43.72,298.6,47.329,323.697,71.389z"/>
<path fill="#070807" stroke="#000000" stroke-width="1.1245" stroke-miterlimit="10" d="M110.513,90.82
	c0,0-50.496,17.744-85.874,48.42l15.119,59.547c0,0,67.732-18.045,76.198-21.654c0,0-68.128,16.413-72.872,16.24l-9.978-51.127
	c0,0,54.125-40.6,76.803-46.916L110.513,90.82z"/>
<path fill="#070807" stroke="#000000" stroke-width="1.1245" stroke-miterlimit="10" d="M55.1,194.433l-8.013,33.834
	c0,0,11.188,18.646,6.652,48.119c0,0-5.14,15.639,21.771,5.113l1.814,17.443l8.164,6.015v9.624c0,0,1.814,1.804,6.955,2.105
	c0,0,3.326,27.668,13.909,28.27c0,0,45.961-12.03,47.473-70.976c0,0,26.004,92.629,8.769,110.072c0,0,20.864-6.466-6.803-124.207
	c0,0-5.896-0.451-9.071-4.06c0,0,7.257,66.314-41.274,81.201c0,0-6.803-9.022-6.803-23.909l-8.164-2.256l-0.907-9.925l-8.618-3.609
	l-1.814-19.849c0,0-22.678,6.767-22.678,3.158c0,0,6.047-23.759-7.559-52.63L55.1,194.433z"/>
<path fill="#070807" stroke="#000000" stroke-width="1.1245" stroke-miterlimit="10" d="M239.171,222.13
	c0,0,79.656,60.397,30.469,125.839C269.641,347.969,338.717,287.586,239.171,222.13z"/>
<path fill="#68BD45" d="M141.767,25.422c0,0,144.625-12.688,181.93,45.987c0,0-86.706-110.505-194.578,84.359
	c0,0,26.955,91.593,105.366,65.85l2.997-1.872c0,0,86.251,65.096,28.591,131.634l-24.072,13.22c0,0,70.138-27.173-53.354-101.376
	C188.647,263.224,45.053,218.312,141.767,25.422z"/>
<path fill="none" stroke="#040504" stroke-width="1.1245" stroke-miterlimit="10" d="M155.79,259.845c0,0,3.584,0.266,3.298-7.191"
	/>
<ellipse fill="none" stroke="#000000" stroke-width="1.0447" stroke-miterlimit="10" cx="188.763" cy="197.013" rx="188.241" ry="196.49"/>
<rect x="479.526" y="84" fill="none" width="443.737" height="73.512"/>
<text transform="matrix(1 0 0 1 479.5257 135.119)" font-family="'MyriadPro-Regular'" font-size="72">Submission to </text>
<rect x="501.263" y="167.513" fill="none" width="410" height="136"/>
<text transform="matrix(1 0 0 1 501.263 274.0115)" font-family="'MyriadPro-Regular'" font-size="150">ISLAM</text>
</svg>
