<?xml version="1.0" encoding="utf-8"?>
<!-- Generator: Adobe Illustrator 17.0.2, SVG Export Plug-In . SVG Version: 6.00 Build 0)  -->
<!DOCTYPE svg PUBLIC "-//W3C//DTD SVG 1.1//EN" "http://www.w3.org/Graphics/SVG/1.1/DTD/svg11.dtd">
<svg version="1.1" id="Layer_1" xmlns="http://www.w3.org/2000/svg" xmlns:xlink="http://www.w3.org/1999/xlink" x="0px" y="0px"
	 width="283px" height="283px" viewBox="0 0 283 283" enable-background="new 0 0 283 283" xml:space="preserve">
<g>
	<path fill="#34582A" d="M36.289,0H246.44c19.959,0,36.289,16.329,36.289,36.289V246.44c0,19.959-16.33,36.289-36.289,36.289H36.289
		C16.33,282.729,0,266.399,0,246.44V36.289C0,16.329,16.33,0,36.289,0L36.289,0z M205.956,31.413
		c-7.001,0-12.728,5.727-12.728,12.728v30.467c0,7.001,5.727,12.728,12.728,12.728h31.956c7.001,0,12.727-5.727,12.727-12.728
		V44.141c0-7.001-5.727-12.728-12.727-12.728L205.956,31.413L205.956,31.413z M250.773,119.563h-24.885
		c2.355,7.689,3.625,15.829,3.625,24.259c0,47.027-39.346,85.15-87.88,85.15s-87.879-38.123-87.879-85.15
		c0-8.429,1.27-16.57,3.625-24.259H31.414v119.43c0,6.181,5.057,11.239,11.239,11.239h196.881c6.182,0,11.239-5.057,11.239-11.239
		V119.563L250.773,119.563z M141.633,85.733c-31.36,0-56.782,24.633-56.782,55.018c0,30.387,25.423,55.019,56.782,55.019
		c31.361,0,56.782-24.633,56.782-55.019C198.415,110.366,172.994,85.733,141.633,85.733z"/>
</g>
</svg>
