<?xml version="1.0" encoding="utf-8"?>
<!-- Generator: Adobe Illustrator 17.0.2, SVG Export Plug-In . SVG Version: 6.00 Build 0)  -->
<!DOCTYPE svg PUBLIC "-//W3C//DTD SVG 1.1//EN" "http://www.w3.org/Graphics/SVG/1.1/DTD/svg11.dtd">
<svg version="1.1" id="Layer_1" xmlns="http://www.w3.org/2000/svg" xmlns:xlink="http://www.w3.org/1999/xlink" x="0px" y="0px"
	 width="283px" height="283px" viewBox="0 0 283 283" enable-background="new 0 0 283 283" xml:space="preserve">
<g>
	<path fill-rule="evenodd" clip-rule="evenodd" fill="#711C1A" d="M36.789-0.5H246.94c19.959,0,36.289,16.329,36.289,36.289V245.94
		c0,19.959-16.33,36.289-36.289,36.289H36.789C16.83,282.229,0.5,265.899,0.5,245.94V35.789C0.5,15.829,16.83-0.5,36.789-0.5
		L36.789-0.5z M206.456,30.913c-7.001,0-12.728,5.727-12.728,12.728v30.467c0,7.001,5.727,12.728,12.728,12.728h31.956
		c7.001,0,12.727-5.727,12.727-12.728V43.641c0-7.001-5.727-12.728-12.727-12.728H206.456L206.456,30.913z M251.273,119.063h-24.885
		c2.355,7.689,3.625,15.829,3.625,24.259c0,47.027-39.346,85.15-87.88,85.15c-48.534,0-87.879-38.123-87.879-85.15
		c0-8.429,1.27-16.57,3.625-24.259H31.914v119.43c0,6.181,5.057,11.239,11.239,11.239h196.881c6.182,0,11.239-5.057,11.239-11.239
		V119.063L251.273,119.063z M142.133,85.233c-31.36,0-56.782,24.633-56.782,55.018c0,30.387,25.423,55.019,56.782,55.019
		c31.361,0,56.782-24.633,56.782-55.019C198.915,109.866,173.494,85.233,142.133,85.233z"/>
</g>
</svg>
