<?xml version="1.0" encoding="utf-8"?>
<!-- Generator: Adobe Illustrator 17.0.2, SVG Export Plug-In . SVG Version: 6.00 Build 0)  -->
<!DOCTYPE svg PUBLIC "-//W3C//DTD SVG 1.1//EN" "http://www.w3.org/Graphics/SVG/1.1/DTD/svg11.dtd">
<svg version="1.1" id="Layer_1" xmlns="http://www.w3.org/2000/svg" xmlns:xlink="http://www.w3.org/1999/xlink" x="0px" y="0px"
	 width="720.257px" height="174.5px" viewBox="0 0 720.257 174.5" enable-background="new 0 0 720.257 174.5" xml:space="preserve">
<path fill="#FFF5E4" d="M207.544,86.536c0,47.792-46.461,86.536-103.772,86.536C46.458,173.072,0,134.328,0,86.536
	S46.458,0,103.772,0C161.083,0,207.544,38.744,207.544,86.536"/>
<path fill="#C49061" d="M52.551,105.127l-1.173-13.796l73.381-64.871l9.687,4.109c0,0,23.483-20.255,33.17-18.787
	c0,0,16.437,2.645,9.395,17.614c0,0-13.505,9.392-28.182,12.623l0.59,31.406l-70.157,60.762l-20.252-9.395
	c0,0-19.668,23.483-25.246,26.419c0,0-14.678,12.915-19.373-6.456C14.39,144.756,11.454,118.923,52.551,105.127"/>
<path fill="#512606" d="M48.441,103.66c0,0-10.568-13.21,6.164-22.31c0,0,14.091-6.751,23.188,9.687c0,0,9.395,16.146,3.231,29.06
	c0,0-12.623,8.219-19.668-2.641l0.295,8.219c0,0,6.164,7.927,17.905,3.228c0,0,4.696,0,16.732-17.905
	c0,0,51.953-54.598,57.53-58.999c0,0,0-14.678-3.814-19.373c0,0,5.282-7.046,22.306-7.337c0,0,4.404-11.45-3.519-17.614
	c0,0-9.687-5.577-16.146-1.173c0,0-6.751,4.991-14.969,17.024c0,0-7.046-3.523-15.851-3.523c0,0-35.519,32.878-71.625,52.251
	l17.905,1.173c0,0,50.488-46.379,54.306-49.902c0,0,9.1,0.295,11.741,2.35c0,0,0,1.468-6.164,3.523l4.987,2.641l4.109-4.991
	c0,0,4.113,2.641,6.459,6.459c0,0-6.164,4.109-4.109,13.501l5.577-8.514c0,0,1.173,12.623,0.295,17.905L87.774,99.845
	c0,0-8.514-19.668-23.188-23.483c0,0-33.17-0.295-23.483,26.124c0,0-2.065,3.763-15.81,6.757c0,0-17.974,5.286-21.764,18.194
	c0,0-3.711,26.381,30.926,16.695c0,0,11.982-3.523,20.149-23.448c0,0,4.991-12.915,14.678-12.62l-7.046-3.818
	c0,0-13.501,21.133-29.647,31.115c0,0-22.275,9.299-18.492-7.632C14.098,127.729,17.185,115.94,48.441,103.66"/>
<path fill="#FFFFFF" d="M139.338,23.819c0,0,1.468,0.144,2.912,1.111c0,0,13.673-9.917,25.52-13.319c0,0-3.739-6.634-12.417-2.535
	L139.338,23.819z"/>
<path fill="#E3B867" d="M23.491,127.142l-0.882,7.337l10.273-3.523l7.341-10.565C40.223,120.392,27.013,124.206,23.491,127.142"/>
<polygon fill="#E3B867" points="127.108,33.505 79.85,76.948 90.124,79.884 138.262,48.183 134.74,39.374 "/>
<path fill="#C49061" d="M142.257,24.935l5.649,4.01c0,0,6.363-5.399,13.093-6.696c0,0,9.536-3.379,6.764-10.668
	C167.763,11.581,157.243,13.79,142.257,24.935"/>
<g enable-background="new    ">
	<path d="M234.858,17.078h-11.722v-4.701h28.854v4.701h-11.787v42.96h-5.346V17.078z"/>
	<path d="M256.626,12.377h4.766v12.688v5.99c2.125-4.573,7.471-6.763,12.366-6.634c5.475,0,9.082,1.739,11.465,4.766
		c2.383,3.027,3.285,7.214,3.285,12.174v18.678h-4.702V41.553c0-3.735-0.773-6.892-2.512-9.146
		c-1.868-2.254-4.573-3.542-8.695-3.542c-3.8,0-6.634,1.353-8.438,3.413c-1.868,2.062-2.77,4.896-2.77,8.051v19.709h-4.766V12.377z"
		/>
</g>
<g enable-background="new    ">
	<path d="M299.777,44.066c0.258,8.694,7.665,12.881,13.525,12.816c5.346,0,9.661-2.641,11.916-7.148h4.959
		c-1.61,3.735-4.058,6.569-7.021,8.437c-2.898,1.868-6.312,2.834-9.854,2.834c-12.044,0-18.292-9.597-18.292-18.227
		c0-10.177,7.858-18.356,18.228-18.356c4.895,0,9.403,1.739,12.688,4.895c3.993,3.865,5.925,9.211,5.41,14.75H299.777z
		 M326.635,40.265c-0.322-6.054-6.183-11.979-13.333-11.786c-7.471,0-13.01,5.475-13.461,11.786H326.635z"/>
</g>
<g>
	<g>
		<g>
			<g enable-background="new    ">
				<path d="M227.356,70.053h20.717c12.452,0,18.249,1.503,22.328,4.079c6.441,3.864,10.842,12.345,10.842,21.361
					c0.107,5.367-1.396,11.057-4.723,15.565c-4.723,6.44-10.413,7.943-17.712,8.695l19.751,29.734h-9.661l-22.435-34.673h2.576
					c5.582,0,13.311-0.107,17.604-4.079c4.187-4.079,6.012-8.909,6.012-14.599c0-5.904-2.898-12.13-7.836-15.351
					c-3.972-2.576-8.91-2.898-16.102-2.898h-12.452v71.6h-8.91V70.053z"/>
				<path d="M287.357,120.505c0-16.102,12.022-30.379,30.593-30.379c18.678,0,30.701,14.277,30.701,30.486
					s-12.023,30.379-30.701,30.379c-18.571,0-30.593-14.17-30.593-30.379V120.505z M295.193,120.72
					c0,13.096,9.983,22.972,22.757,22.972c12.882,0,22.757-9.876,22.757-23.079s-9.875-23.079-22.757-23.079
					c-12.774,0-22.757,9.876-22.757,23.079V120.72z"/>
				<path d="M360.561,70.053h7.943v79.436h-7.943V70.053z"/>
				<path d="M383.853,70.053h7.943v79.436h-7.943V70.053z"/>
				<path d="M407.145,70.053h7.943V81.11h-7.943V70.053z M407.145,91.737h7.943v57.752h-7.943V91.737z"/>
				<path d="M430.544,91.737h7.515c0,3.221,0,6.44-0.107,10.306c3.327-7.515,11.164-12.131,21.469-11.916
					c17.927,0.215,24.26,12.452,24.26,26.515v32.848h-7.836v-31.237c0-12.452-5.582-20.933-18.57-20.718
					c-11.916,0.107-18.786,7.299-18.786,19.322v32.633h-7.943V91.737z"/>
				<path d="M556.776,142.833c0,10.949-3.543,17.927-8.588,22.757c-5.689,5.582-14.062,8.91-21.898,8.91
					c-14.384,0-24.904-8.266-28.554-18.679h9.124c1.396,2.47,3.436,5.261,6.87,7.622c4.187,3.006,9.125,4.187,12.774,4.187
					c11.057,0,22.328-8.588,22.328-22.972v-7.407c-4.079,8.158-12.131,13.848-23.294,13.848c-18.034,0-30.164-13.74-30.164-30.379
					c0-17.282,12.56-30.594,30.164-30.594c11.378,0,20.181,6.441,23.401,13.525V91.737h7.836V142.833z M503.318,120.613
					c0,11.7,8.266,23.079,23.187,23.079c6.548,0,12.13-2.469,16.209-6.655c3.972-4.187,6.333-9.983,6.44-16.316
					c0-4.831-1.609-10.52-5.26-15.136c-3.542-4.616-9.339-8.051-17.604-8.051c-12.667,0-22.972,9.446-22.972,22.972V120.613z"/>
			</g>
		</g>
	</g>
	<g>
		<g>
			<g enable-background="new    ">
				<path d="M604.869,74.671c11.164,0,16.424,1.288,21.361,5.045c5.26,4.079,8.48,11.486,8.48,18.893
					c0,7.515-3.328,15.136-8.158,18.894c-5.26,4.079-10.627,5.367-20.933,5.367h-12.773v31.237h-8.91V74.671H604.869z
					 M592.846,115.033h12.666c6.655,0,10.734-0.751,14.707-3.327c3.435-2.255,5.903-7.3,5.903-12.882
					c0-5.689-2.469-10.734-6.011-12.988c-3.972-2.576-8.051-3.328-14.814-3.328h-12.451V115.033z"/>
				<path d="M643.722,74.671h7.943v11.057h-7.943V74.671z M643.722,96.355h7.943v57.752h-7.943V96.355z"/>
				<path d="M667.121,96.355h7.515c0,3.221,0,6.44-0.107,10.306c3.327-7.515,11.164-12.131,21.469-11.916
					c17.927,0.215,24.26,12.452,24.26,26.515v32.848h-7.836V122.87c0-12.452-5.582-20.933-18.57-20.718
					c-11.916,0.107-18.786,7.299-18.786,19.322v32.633h-7.943V96.355z"/>
			</g>
		</g>
	</g>
</g>
</svg>
