<?xml version="1.0" encoding="utf-8"?>
<!-- Generator: Adobe Illustrator 17.0.2, SVG Export Plug-In . SVG Version: 6.00 Build 0)  -->
<!DOCTYPE svg PUBLIC "-//W3C//DTD SVG 1.1//EN" "http://www.w3.org/Graphics/SVG/1.1/DTD/svg11.dtd">
<svg version="1.1" id="Layer_1_copy" xmlns="http://www.w3.org/2000/svg" xmlns:xlink="http://www.w3.org/1999/xlink" x="0px"
	 y="0px" width="630.411px" height="250.797px" viewBox="-0.289 -0.289 630.411 250.797"
	 enable-background="new -0.289 -0.289 630.411 250.797" xml:space="preserve">
<rect x="0.5" y="0.5" fill="#78191B" stroke="#FFFFFF" stroke-width="1.5773" width="628.833" height="249.22"/>
<path fill="#FFFFFF" d="M510.214,159.77c0.005-0.098,0.03-0.205,0.03-0.303h-0.057c-1.213-12.8-40.348-37.247-85.12-37.247
	c-45.481,0-27.323,25.392-63.302,30.428c-66.92,6.835-153.269-8.634-187.809-8.275c-10.746,0-31.118,3.928-31.293,15.325h-0.008
	c0,0.025,0.003,0.047,0.003,0.073c0,0.027-0.003,0.049-0.003,0.074h0.008c0.175,11.399,20.546,15.325,31.293,15.325
	c34.539,0.36,120.889-15.109,187.809-8.275c35.978,5.036,17.821,30.428,63.302,30.428c44.771,0,83.907-24.447,85.12-37.247h0.057
	C510.244,159.977,510.219,159.871,510.214,159.77z"/>
<g>
	<path fill="#FFFFFF" d="M102.251,94.131h-0.164c-2.297,5.249-7.792,6.234-13.452,6.234c-11.401,0-15.42-4.593-15.42-15.912V56.809
		h6.48v27.643c0,6.972,0.492,10.663,8.858,10.663c9.104,0,13.78-1.476,13.78-11.731V56.809h6.48v43.063h-6.562
		C102.251,99.872,102.251,94.131,102.251,94.131z"/>
	<path fill="#FFFFFF" d="M132.515,56.809l-0.328,5.331l0.164,0.164c2.215-4.757,7.384-5.988,12.223-5.988
		c8.284,0,11.975,4.101,11.975,12.139v3.117h-6.152v-2.871c0-5.331-1.804-7.136-7.218-7.136c-8.038,0-10.663,3.855-10.499,11.483
		v26.823h-6.48V56.809H132.515z"/>
	<path fill="#FFFFFF" d="M170.162,38.353h6.48v24.032h0.164c2.051-5.495,8.858-6.07,13.862-6.07
		c14.846,0,16.814,8.612,16.814,22.064c0,14.027-1.887,21.983-16.814,21.983c-5.824,0-11.483-1.066-13.862-5.742l-0.164,0.164v5.087
		h-6.48V38.353z M188.864,61.567c-11.319,0-12.057,4.511-12.057,16.814c0,13.944,2.543,16.732,12.057,16.732
		c11.483,0,11.893-4.921,11.893-16.732C200.758,64.273,199.199,61.567,188.864,61.567z"/>
	<path fill="#FFFFFF" d="M253.332,99.872v-4.429l-0.164-0.164c-2.461,4.921-8.776,5.085-14.19,5.085
		c-9.68,0-16.404-1.804-16.404-13.043c0-11.893,6.152-13.534,16.814-13.534c4.265,0,12.631,0.41,13.534,4.347h0.41v-7.956
		c0-7.874-4.183-8.612-11.483-8.612c-5.085,0-11.319,0-11.237,5.906v1.476h-6.726v-0.902c0-11.073,7.628-11.811,17.225-11.729
		c10.827-0.082,18.785,1.066,18.701,14.19v29.365H253.332z M253.168,87.077c0-8.12-4.839-8.038-13.041-8.038
		c-7.71,0-10.827,0.492-10.827,7.464c0,8.202,3.363,8.612,10.827,8.612C246.606,95.115,253.168,94.951,253.168,87.077z"/>
	<path fill="#FFFFFF" d="M284.336,62.059h0.164c2.051-5.167,8.366-5.742,13.288-5.742c11.073,0,16.404,2.953,16.24,14.928v28.627
		h-6.48V70.755c0-7.874-3.035-9.186-10.335-9.186c-10.581,0-12.879,3.281-12.879,13.205v25.099h-6.48V56.809h6.48v5.249H284.336z"/>
	<path fill="#FFFFFF" d="M366.356,68.046h-6.727v-1.64c0-4.347-3.281-4.347-10.087-4.347c-8.12,0-12.059-0.082-12.059,5.249
		c0,7.712,2.134,7.136,8.858,7.464c11.074,0.656,21.162-1.066,21.162,12.959c0,12.139-8.366,12.631-17.963,12.631
		c-9.352,0-19.111-0.492-19.111-10.09v-4.019h6.726v3.363c0,4.103,2.543,5.003,12.387,5.003c4.429,0,11.237,0.984,11.237-6.644
		c0-8.038-3.363-6.562-11.237-7.054c-9.352-0.656-18.785,0.328-18.785-11.895c0-12.467,7.136-12.713,18.785-12.713
		c7.546,0,16.814,0.328,16.814,10.089V68.046z"/>
	<path fill="#FFFFFF" d="M389.485,62.059l0.164,0.164c2.625-4.921,8.448-5.906,13.862-5.906c15.668,0,16.814,9.186,16.814,22.064
		c0,17.061-4.183,21.983-16.814,21.983c-4.921,0-11.403-0.574-13.862-5.577h-0.164v23.704h-6.478V56.809h6.478V62.059z
		 M389.485,78.381c0,10.171,0.656,16.732,12.221,16.732c10.008,0,11.895-2.789,11.895-16.732c0-12.877-0.902-16.814-11.895-16.814
		C389.485,61.567,389.485,66.98,389.485,78.381z"/>
	<path fill="#FFFFFF" d="M454.858,56.317c15.996,0,19.111,3.855,19.111,22.064c0,18.127-3.117,21.983-19.111,21.983
		c-15.994,0-19.111-3.855-19.111-21.983C435.745,60.172,438.863,56.317,454.858,56.317z M454.858,95.115
		c11.567,0,12.387-1.804,12.387-16.732c0-15.012-0.82-16.814-12.387-16.814c-11.565,0-12.387,1.804-12.387,16.814
		C442.471,93.311,443.293,95.115,454.858,95.115z"/>
	<path fill="#FFFFFF" d="M508.5,56.317c15.996,0,19.111,3.855,19.111,22.064c0,18.127-3.117,21.983-19.111,21.983
		c-15.994,0-19.111-3.855-19.111-21.983C489.387,60.172,492.506,56.317,508.5,56.317z M508.5,95.115
		c11.567,0,12.385-1.804,12.385-16.732c0-15.012-0.82-16.814-12.385-16.814c-11.565,0-12.387,1.804-12.387,16.814
		C496.113,93.311,496.933,95.115,508.5,95.115z"/>
	<path fill="#FFFFFF" d="M550.902,62.059h0.164c2.051-5.167,8.366-5.742,13.288-5.742c11.075,0,16.404,2.953,16.242,14.928v28.627
		h-6.48V70.755c0-7.874-3.036-9.186-10.336-9.186c-10.581,0-12.877,3.281-12.877,13.205v25.099h-6.48V56.809h6.48V62.059z"/>
</g>
</svg>
